<mxfile host="app.diagrams.net" modified="2023-03-29T08:33:00.801Z" agent="Mozilla/5.0 (Macintosh; Intel Mac OS X 10_15_7) AppleWebKit/537.36 (KHTML, like Gecko) Chrome/111.0.0.0 Safari/537.36" version="21.1.1" etag="-TGToIiKauxD8uYmOkIG" type="github">
  <diagram name="Page-1" id="r-lCwubZHltimsfAbMAT">
    <mxGraphModel>
      <root>
        <mxCell id="0" />
        <mxCell id="1" parent="0" />
      </root>
    </mxGraphModel>
  </diagram>
</mxfile>
